<?xml version="1.0" standalone="no"?>
<!DOCTYPE svg PUBLIC "-//W3C//DTD SVG 1.1//EN" "http://www.w3.org/Graphics/SVG/1.1/DTD/svg11.dtd" >
<!--
2013-9-30: Created.
-->
<svg>
<metadata>
Created by iconfont
</metadata>
<defs>

<font id="iconfont" horiz-adv-x="1024" >
  <font-face
    font-family="iconfont"
    font-weight="500"
    font-stretch="normal"
    units-per-em="1024"
    ascent="896"
    descent="-128"
  />
    <missing-glyph />
    
    <glyph glyph-name="icon-test" unicode="&#58899;" d="M486.3 576.8h50v-382.4h-50zM486.4 574.9a24.9 24.6 0 1 1 49.8 0 24.9 24.6 0 1 1-49.8 0ZM486.2 194.4a25.1 24.8 0 1 1 50.2 0 25.1 24.8 0 1 1-50.2 0Z"  horiz-adv-x="1024" />

    
    <glyph glyph-name="o" unicode="&#58921;" d="M152.88410027 169.39112852999995a13.2553888 13.2553888 0 0 0-5.59228374 1.23903254c-6.66762027 3.09292373-9.56490773 11.00623147-6.471984 17.6738528 5.23827413 11.2883744 18.53092693 23.34199467 36.73712427 39.13799893 6.20181867 5.38067627 12.06160533 10.46323947 15.43534187 13.99667947 18.44974507 19.3241216 43.13990293 74.0465184 48.102688 100.7848736 3.63591573 19.59162453 3.43761707 47.97492587 3.24464213 75.42529173-0.23290133 33.26623467-0.47245653 67.6650336 5.79191253 91.9559328 10.90508587 42.2788352 60.7299104 125.2793952 98.704736 155.49795627 34.89121813 27.76578133 117.03603413 61.68147627 163.16372267 61.68147626 7.34902187 0 13.30862293-5.95827093 13.30862293-13.308624s-5.95960107-13.30862293-13.30862293-13.30862293c-39.3269824 0-115.9221024-31.48687147-146.59049387-55.89222507-33.11584747-26.35240533-79.99014933-104.43542933-89.50448426-141.31894826-5.3979776-20.92781013-5.1704-53.56188587-4.94947734-85.1219552 0.21027627-30.02026133 0.40857493-58.37561493-3.69181226-80.4679296-5.25690667-28.33139733-30.67770773-88.81376747-55.02317227-114.31175787-4.2387968-4.43709547-10.26361067-9.66605333-17.24265173-15.72014613-10.668192-9.25481707-26.7902592-23.24218027-30.03490134-30.23586134a13.3059616 13.3059616 0 0 0-12.07890666-7.707024zM871.11589973 169.39112852999995a13.30862293 13.30862293 0 0 0-12.081568 7.71101654c-3.24464213 6.99368107-19.36670827 20.98104427-30.03490133 30.23719253-6.9750496 6.0527616-13.00119467 11.28038933-17.23732907 15.7148224-24.34679573 25.49932267-49.768928 85.98169173-55.0258336 114.3157504-4.1003872 22.08965333-3.90208853 50.44500587-3.69048106 80.46526827 0.22092267 31.56006933 0.44850027 64.19414507-4.94947734 85.12328533-9.51300373 36.88351893-56.3886368 114.96521173-89.50448533 141.31894827-30.66839147 24.4040224-107.26484267 55.89222507-146.5904928 55.89222506-7.35035307 0-13.30862293 5.95827093-13.308624 13.308624s5.95827093 13.30862293 13.308624 13.30862294c46.12768853 0 128.27250453-33.915696 163.1650528-61.68147627 37.9761568-30.2198912 87.79965013-113.2204512 98.704736-155.4979552 6.26436907-24.289568 6.02348267-58.68969813 5.79191253-91.957264-0.19297493-27.44903573-0.3899424-55.83233707 3.2446432-75.4226304 4.96278613-26.74234773 29.652944-81.4647456 48.10534934-100.78753493 3.37240533-3.5307776 9.2308608-8.6133408 15.43267946-13.99401814 18.20752747-15.79600533 31.50018027-27.85095573 36.73712427-39.14199146 3.09292373-6.66762027 0.19430613-14.5795968-6.47331413-17.6711904a13.23276373 13.23276373 0 0 0-5.59361494-1.24169494zM871.10791467 169.39379093000002H152.89208533c-7.35035307 0-13.30862293 5.95960107-13.308624 13.30862294s5.95827093 13.30862293 13.308624 13.30862293h718.21582934c7.34902187 0 13.30862293-5.95960107 13.308624-13.30862293s-5.95960107-13.30862293-13.308624-13.30862294zM512 41.215777069999945c-60.90026027 0-110.4456032 49.54667413-110.4456032 110.4469344a110.2326656 110.2326656 0 0 0 5.7639648 35.2904768l3.0529984 9.05784853h203.25594987l3.05432853-9.0565184a110.18741653 110.18741653 0 0 0 5.765296-35.29180693c0-60.90026027-49.54667413-110.4469344-110.4469344-110.4469344z m-81.95184107 128.17801386a84.19700587 84.19700587 0 0 1-1.8765152-17.72974826c0-46.2235104 37.60484587-83.82968747 83.82835627-83.82968747 46.22218027 0 83.82835627 37.60617707 83.82835627 83.82968747 0 6.00352-0.6294976 11.93783467-1.8765152 17.72974826H430.04815893z"  horiz-adv-x="1024" />

    
    <glyph glyph-name="erji" unicode="&#58941;" d="M793.114947 134.979368a30.531368 30.531368 0 0 0-32.336842 32.336843v268.314947a255.380211 255.380211 0 0 1-510.787368 0v-268.314947a32.336842 32.336842 0 0 0-64.673684 0v268.314947a320.053895 320.053895 0 0 0 640.080842 0v-268.314947a30.531368 30.531368 0 0 0-32.282948-32.336843zM793.141895 28.321684h-32.336842V409.788632h32.336842a191.083789 191.083789 0 0 0 190.733473-190.733474 189.035789 189.035789 0 0 0-190.733473-190.733474z m32.336842 310.352842v-242.526315a125.224421 125.224421 0 0 1 93.749895 122.853052 121.505684 121.505684 0 0 1-93.749895 119.673263zM250.017684 28.321684h-32.336842A191.083789 191.083789 0 0 0 26.947368 219.055158a189.035789 189.035789 0 0 0 190.733474 190.733474h32.336842z m-64.673684 310.352842A125.197474 125.197474 0 0 1 91.621053 215.767579a128.026947 128.026947 0 0 1 93.749894-122.853053z"  horiz-adv-x="1024" />

    
    <glyph glyph-name="xinwen" unicode="&#58943;" d="M864 640H672c-17.6 0-32-14.4-32-32s14.4-32 32-32h192c17.6 0 32 14.4 32 32s-14.4 32-32 32zM864 512H672c-17.6 0-32-14.4-32-32s14.4-32 32-32h192c17.6 0 32 14.4 32 32s-14.4 32-32 32zM864 320H288c-17.6 0-32-14.4-32-32s14.4-32 32-32h576c17.6 0 32 14.4 32 32s-14.4 32-32 32zM864 128H288c-17.6 0-32-14.4-32-32s14.4-32 32-32h576c17.6 0 32 14.4 32 32s-14.4 32-32 32zM992 896H160c-17.6 0-32-14.4-32-32v-96h-96c-17.6 0-32-14.4-32-32v-832c0-17.6 14.4-32 32-32h960c17.6 0 32 14.4 32 32v960c0 17.6-14.4 32-32 32z m-800-64h768v-896H192v896z m-64-896h-64v768h64v-768zM288 384h256c17.6 0 32 14.4 32 32v256c0 17.6-14.4 32-32 32H288c-17.6 0-32-14.4-32-32v-256c0-17.6 14.4-32 32-32z m32 64v192h192v-192H320z"  horiz-adv-x="1024" />

    
    <glyph glyph-name="zuixiaohua" unicode="&#58998;" d="M423.212394 269.625187H60.897551c-14.328836 0-25.587206 11.258371-25.587206 25.587207s11.258371 25.587206 25.587206 25.587206h361.803099c14.328836 0 25.587206-11.258371 25.587206-25.587206s-11.258371-25.587206-25.075462-25.587207zM423.212394-92.689655c-14.328836 0-25.587206 11.258371-25.587207 25.587206v361.803099c0 14.328836 11.258371 25.587206 25.587207 25.587206s25.587206-11.258371 25.587206-25.587206v-361.803099c0-13.817091-11.770115-25.587206-25.587206-25.587206zM25.587206-128c-6.652674 0-13.305347 2.558721-17.911044 7.676162-10.234883 10.234883-10.234883 26.098951 0 36.333833l398.136931 398.136932c10.234883 10.234883 26.098951 10.234883 36.333834 0s10.234883-26.098951 0-36.333834L43.498251-120.323838c-4.605697-5.117441-11.258371-7.676162-17.911045-7.676162zM962.590705 446.688656h-361.803099c-14.328836 0-25.587206 11.258371-25.587206 25.587206s11.258371 25.587206 25.587206 25.587206h361.803099c14.328836 0 25.587206-11.258371 25.587206-25.587206s-11.770115-25.587206-25.587206-25.587206zM600.275862 446.688656c-14.328836 0-25.587206 11.258371-25.587206 25.587206V834.590705c0 14.328836 11.258371 25.587206 25.587206 25.587206s25.587206-11.258371 25.587206-25.587206v-361.803099c0-14.328836-11.258371-26.098951-25.587206-26.09895zM599.764118 446.176912c-6.652674 0-13.305347 2.558721-17.911045 7.676161-10.234883 10.234883-10.234883 26.098951 0 36.333834l398.136932 398.136931c10.234883 10.234883 26.098951 10.234883 36.333833 0s10.234883-26.098951 0-36.333833l-398.136931-398.136932c-5.117441-5.117441-11.770115-7.676162-18.422789-7.676161z"  horiz-adv-x="1024" />

    
    <glyph glyph-name="huanyuan" unicode="&#58937;" d="M879.787 794.213c11.716 11.716 30.71 11.716 42.426 0 11.716-11.716 11.716-30.71 0-42.426l-262-262c-11.716-11.716-30.71-11.716-42.426 0-11.716 11.716-11.716 30.71 0 42.426l262 262z m-517-517c11.716 11.716 30.71 11.716 42.426 0 11.716-11.716 11.716-30.71 0-42.426l-261-261c-11.716-11.716-30.71-11.716-42.426 0-11.716 11.716-11.716 30.71 0 42.426l261 261zM144.213 794.213c-11.716 11.716-30.71 11.716-42.426 0-11.716-11.716-11.716-30.71 0-42.426l261-261c11.716-11.716 30.71-11.716 42.426 0 11.716 11.716 11.716 30.71 0 42.426l-261 261z m515-515c-11.716 11.716-30.71 11.716-42.426 0-11.716-11.716-11.716-30.71 0-42.426l263-263c11.716-11.716 30.71-11.716 42.426 0 11.716 11.716 11.716 30.71 0 42.426l-263 263zM851.573 529.936c16.569 0 30-13.431 30-30 0-16.568-13.431-30-30-30H658c-33.137 0-60 26.863-60 60V724c0 16.569 13.431 30 30 30 16.569 0 30-13.431 30-30v-194.064h193.573zM658 44.134c0-16.569-13.431-30-30-30-16.569 0-30 13.431-30 30V239c0 33.137 26.863 60 60 60h194.573c16.569 0 30-13.431 30-30 0-16.569-13.431-30-30-30H658v-194.866zM173 238c-16.569 0-30 13.431-30 30 0 16.569 13.431 30 30 30h194.504c33.137 0 60-26.863 60-60v-193.866c0-16.569-13.432-30-30-30-16.569 0-30 13.431-30 30V238H173z m194.504 486c0 16.569 13.431 30 30 30 16.568 0 30-13.431 30-30v-194.064c0-33.137-26.863-60-60-60H173c-16.569 0-30 13.432-30 30 0 16.569 13.431 30 30 30h194.504V724z"  horiz-adv-x="1024" />

    
    <glyph glyph-name="zuixiaohua1" unicode="&#58956;" d="M443.733333 896h1024V-128H443.733333zM577.672533 315.733333C560.264533 315.733333 546.133333 331.025067 546.133333 349.866667S560.264533 384 577.672533 384h756.1216c17.408 0 31.5392-15.291733 31.5392-34.133333s-14.1312-34.133333-31.5392-34.133334H577.672533z"  horiz-adv-x="7680" />

    
    <glyph glyph-name="guanbi" unicode="&#58916;" d="M92.3-59c-6.4 0-12.9 2.5-17.8 7.4-9.8 9.8-9.8 25.7 0 35.6L912.6 822.1c9.8 9.8 25.7 9.8 35.6 0 9.8-9.8 9.8-25.7 0-35.6L110-51.6c-4.9-4.9-11.3-7.4-17.7-7.4zM930.4-59c-6.4 0-12.9 2.5-17.8 7.4L74.5 786.5c-9.8 9.8-9.8 25.7 0 35.6 9.8 9.8 25.7 9.8 35.6 0l838.2-838.2c9.8-9.8 9.8-25.7 0-35.6-5-4.8-11.5-7.3-17.9-7.3z"  horiz-adv-x="1024" />

    
    <glyph glyph-name="yifu" unicode="&#58893;" d="M512.42 534.45c-72.78 0-140.6 36.03-181.41 96.39l65.93 44.59c26-38.44 69.16-61.39 115.49-61.39 45.7 0 88.56 22.49 114.64 60.16l65.44-45.31c-40.94-59.13-108.27-94.44-180.09-94.44zM790.98-2.76H233.87V361.63L81.41 557.64l215.56 215.57h430.9l215.58-215.57-152.47-196.01v-364.39z m-477.52 79.59H711.4v312.1l126.08 162.13-142.56 142.57H329.94L187.36 551.06l126.09-162.13v-312.1z"  horiz-adv-x="1024" />

    
    <glyph glyph-name="sousuo" unicode="&#58960;" d="M486.716049 674.765432c-157.089185 0-284.444444-127.355259-284.444444-284.444444S329.626864 105.876543 486.716049 105.876543 771.160494 233.231802 771.160494 390.320988 643.805235 674.765432 486.716049 674.765432z m0-37.925926c136.154074 0 246.518519-110.364444 246.518519-246.518518S622.870123 143.802469 486.716049 143.802469 240.197531 254.166914 240.197531 390.320988 350.561975 636.839506 486.716049 636.839506zM669.266173 220.41284a18.962963 18.962963 0 0 0 25.372444 1.314765l1.441185-1.302124 132.740741-132.74074a18.962963 18.962963 0 0 0-25.385086-28.128395l-1.441185 1.302123-132.740741 132.740741a18.962963 18.962963 0 0 0 0 26.826271z"  horiz-adv-x="1024" />

    
    <glyph glyph-name="ganggutong" unicode="&#58898;" d="M620.119549 874.927976c-60.205781-30.604606-68.734934-88.301813-34.618324-141.483586 38.130328-59.704067-3.512004-155.531602-55.690348-178.610485-78.769231-35.120039-99.339539-124.926997-48.66634-180.11563l3.010289-4.515433-14.048016 3.010289c-276.44488 140.981872-138.473297 521.281725 150.012739 501.714845z m-575.968643-237.812836c11.037727-66.728074 62.714356-92.315532 124.425282-76.260657 68.734934 18.061734 147.00245-51.174914 153.524743-107.868692 9.532582-85.793239 88.301813-132.954434 157.036747-101.848113l5.518863 2.006859-7.525723-12.542871c-220.754532-219.751102-540.848604 29.099461-432.979912 296.513474z m48.66634-619.617835c66.728074-10.536012 107.868692 31.10632 111.380696 94.322391 4.013719 70.741793 94.322391 123.421852 150.012739 111.882411 84.288094-17.56002 154.026458 42.645762 145.497305 117.401274l-1.505144 8.529152 11.037726-13.546301c141.483586-276.946595-194.163645-503.721705-416.423322-318.588927z m606.071534-145.497305c30.604606 60.205781 3.512004 111.882411-55.690348 134.459579-66.22636 25.587457-88.803528 127.937286-60.707496 177.10534 42.645762 74.755512 6.522293 159.043606-67.22979 174.095052-1.00343 0-7.525723 2.508574-7.525722 2.508574l15.55316 5.017148c308.55463 48.66634 420.938756-339.660951 175.600196-493.185693z m180.617344 518.77315c-45.154336-54.686918-149.511024-44.652621-187.641352-2.508574-58.198922 63.717785-150.012739 55.690348-187.139637-10.034297l-5.017149-6.020578v15.55316c49.168055 306.547771 454.55365 293.00147 524.793729 13.546301-47.66291 48.164625-104.858403 38.632043-144.995591-10.536012z"  horiz-adv-x="1045" />

    
    <glyph glyph-name="qihuo-dianji" unicode="&#58885;" d="M512.5 832.5c-247.1 0-447.4-200.3-447.4-447.4s200.3-447.4 447.4-447.4S960 138 960 385.1 759.7 832.5 512.5 832.5zM710 187.6l-197.4 66.3-197.4-66.3V545.2c0 20.6 16.7 37.3 37.3 37.3h320.3c20.6 0 37.3-16.7 37.3-37.3v-357.6zM628.2 524.9H396.9c-13.4 0-24.2-10.9-24.2-24.2V275l139.8 47 139.9-47V500.7c0 13.4-10.8 24.2-24.2 24.2z"  horiz-adv-x="1024" />

    
    <glyph glyph-name="qihuo-zhengchang" unicode="&#58886;" d="M709 188.5V546.1c0 20.6-16.7 37.3-37.3 37.3H351.4c-20.6 0-37.3-16.7-37.3-37.3v-357.6l197.4 66.3L709 188.5zM371.7 501.6c0 13.4 10.9 24.2 24.2 24.2h231.3c13.4 0 24.2-10.9 24.2-24.2v-225.7l-139.9 46.9-139.9-46.9V501.6zM511.5 833.4C264.4 833.4 64.1 633 64.1 385.9c0-86.3 24.3-166.9 66.7-235.1 14.3-23.1 34-26.1 52.3-12.1 22.3 20 5.7 44.6 3.1 47.6-33.9 52.1-57.9 123.4-56.3 199.7 0 210.8 170.9 381.7 381.7 381.7S893.3 596.8 893.3 386 722.4 4.2 511.5 4.2c-73.3 0-141.7 20.6-199.8 56.4 0 0-23.5 10.9-40.8-9.7-4-4-18.2-30.5 12.8-50.2 66.8-39.4 144.6-62.2 227.8-62.2 247.1 0 447.4 200.3 447.4 447.4S758.7 833.4 511.5 833.4z"  horiz-adv-x="1024" />

    
    <glyph glyph-name="icon_hushen" unicode="&#59596;" d="M128 768h768v-768H128zM299.04 637.28l19.04-57.28h60.32a8.16 8.16 0 0 0 4.8-14.72l-48-35.68 18.08-57.6a8.16 8.16 0 0 0-12.48-9.12l-48.96 35.2-49.12-35.2a8.16 8.16 0 0 0-12.48 9.12l18.24 57.6-48 35.68a8.16 8.16 0 0 0 4.64 14.72h60.32l19.2 57.28a8.16 8.16 0 0 0 14.4 0zM518.08 623.2l13.6-18.72 22.08 6.88a3.2 3.2 0 0 0 3.52-4.8L544 587.84l13.28-18.88a3.2 3.2 0 0 0-3.52-4.8l-21.92 7.04-13.92-18.56a3.04 3.04 0 0 0-5.6 1.92V577.6l-21.92 7.36a3.04 3.04 0 0 0 0 5.92l21.6 7.36v23.04a3.04 3.04 0 0 0 6.08 1.92zM434.72 678.72l23.04-2.4 9.76 20.96a3.2 3.2 0 0 0 5.92-0.8l4.8-22.56 22.88-2.88a3.04 3.04 0 0 0 1.12-5.76l-20-11.52 4.32-22.72a3.04 3.04 0 0 0-5.12-2.88l-17.12 16-20.32-11.2a3.04 3.04 0 0 0-4.32 4l9.44 21.12-16.8 16a3.04 3.04 0 0 0 2.4 4.64zM471.04 454.56l-13.6-18.72-22.08 6.88a3.2 3.2 0 0 1-3.52-4.8l13.6-18.72L432 400a3.2 3.2 0 0 1 3.52-4.8l22.08 7.04 13.76-18.24a3.04 3.04 0 0 1 5.6 1.92v23.04l22.08 7.04a3.2 3.2 0 0 1 0 5.92l-22.08 7.36v23.36a3.2 3.2 0 0 1-5.92 1.92zM554.4 506.72l-23.04-2.4-9.76 20.96a3.2 3.2 0 0 1-5.92 0l-4.64-22.56-23.04-2.88a3.04 3.04 0 0 1-1.12-5.76l20-11.52-4.32-22.72a3.04 3.04 0 0 1 5.12-2.88l17.12 16 20.32-11.2a3.04 3.04 0 0 1 4.32 4l-9.44 21.12 16.96 16a3.04 3.04 0 0 1-2.56 3.84z"  horiz-adv-x="1024" />

    
    <glyph glyph-name="icon_meigu" unicode="&#59598;" d="M128 767.68h767.36v-767.36H128zM128 767.68h768v-59.04H128zM128 531.52h768v-59.04H128zM128 649.6h768v-59.04H128zM128 413.44h768v-59.04H128zM128 177.44h768v-59.04H128zM128 59.36h768v-59.04H128zM128 295.52h768v-59.04H128zM128 767.68h413.12v-413.12H128zM180.8 736l3.2-9.6h10.08a1.44 1.44 0 0 0 0-2.56l-8.16-5.92 3.04-9.6a1.28 1.28 0 0 0-2.08-1.44l-8.16 5.76-8.16-5.76a1.28 1.28 0 0 0-2.08 1.44l3.04 9.6-8.16 5.92a1.44 1.44 0 0 0 0.8 2.56h10.08l3.2 9.6a1.28 1.28 0 0 0 3.36 0zM180.8 657.12l3.2-9.44h10.08a1.28 1.28 0 0 0 0-2.4l-8.16-6.08 3.04-9.6a1.28 1.28 0 0 0-2.08-1.44l-8.16 5.92-8.16-5.92a1.28 1.28 0 0 0-2.08 1.44l3.04 9.6-8.16 6.08a1.28 1.28 0 0 0 0.8 2.4h10.08l3.2 9.44a1.28 1.28 0 0 0 3.36 0zM180.8 568.8l3.2-9.44h10.08a1.28 1.28 0 0 0 0-2.4l-8.16-6.08 3.04-9.6a1.28 1.28 0 0 0-2.08-1.44l-8.16 5.92-8.16-5.92a1.28 1.28 0 0 0-2.08 1.44l3.04 9.6-8.16 6.08a1.28 1.28 0 0 0 0.8 2.4h10.08l3.2 9.44a1.28 1.28 0 0 0 3.36 0zM180.8 487.68l3.2-9.6h10.08a1.28 1.28 0 0 0 0-2.4l-8.16-6.08 3.04-9.6a1.28 1.28 0 0 0-2.08-1.44l-7.36 5.44-8.16-5.76a1.28 1.28 0 0 0-2.08 1.44l3.04 9.6-8.16 6.08a1.28 1.28 0 0 0 0.8 2.4h10.08l3.2 9.6a1.28 1.28 0 0 0 2.56 0.32zM180.8 413.92l3.2-9.6h10.08a1.28 1.28 0 0 0 0-2.4l-8.16-5.92 3.04-9.6a1.44 1.44 0 0 0-2.08-1.6l-8.16 5.92-8.16-5.92a1.44 1.44 0 0 0-2.08 1.6l3.04 9.6-8.16 5.92a1.28 1.28 0 0 0 0.8 2.4h10.08l3.2 9.6a1.44 1.44 0 0 0 3.36 0zM219.52 699.04l3.2-9.44h10.08a1.28 1.28 0 0 0 0-2.4l-8-6.08 3.04-9.6a1.28 1.28 0 0 0-2.08-1.44l-8.32 5.92-8.16-5.92A1.28 1.28 0 0 0 208 672l3.04 9.6-8 6.08a1.28 1.28 0 0 0 0.8 2.4h9.92l3.2 9.44a1.28 1.28 0 0 0 2.56-0.48zM219.52 610.72l3.2-9.44h10.08a1.28 1.28 0 0 0 0-2.4l-8-6.08 3.04-9.6a1.28 1.28 0 0 0-2.08-1.44l-8.32 5.92-8.16-5.92a1.28 1.28 0 0 0-2.08 1.44l3.04 9.6-8 6.08a1.28 1.28 0 0 0 0.8 2.4h9.92l3.2 9.44a1.28 1.28 0 0 0 3.36 0zM219.52 526.88l3.2-9.6h10.08a1.44 1.44 0 0 0 0-2.56l-8-5.92 3.04-9.6a1.28 1.28 0 0 0-2.08-1.44l-8.32 5.76-8.16-5.76a1.28 1.28 0 0 0-1.28 1.44l3.04 9.6-8 5.92a1.44 1.44 0 0 0 0.8 2.56h9.92l3.2 9.6a1.44 1.44 0 0 0 2.56 0zM219.52 451.52l3.2-9.6h10.08a1.44 1.44 0 0 0 0-2.56l-8-5.92 3.04-9.6a1.28 1.28 0 0 0-2.08-1.44l-8.32 5.76-8.16-5.76a1.28 1.28 0 0 0-2.08 1.44l3.04 9.6-8 5.92a1.44 1.44 0 0 0 0.8 2.56h9.92l3.2 9.6a1.28 1.28 0 0 0 3.36 0zM258.4 736l3.2-9.6H272a1.44 1.44 0 0 0 0.8-2.56l-8-5.92 3.04-9.6a1.28 1.28 0 0 0-2.08-1.44l-8.16 5.76-8.32-5.76a1.28 1.28 0 0 0-2.08 1.44l3.04 9.6-8 5.92a1.44 1.44 0 0 0 0.8 2.56h10.08L256 736a1.28 1.28 0 0 0 2.4 0zM258.4 657.12l3.2-9.44H272a1.28 1.28 0 0 0 0.8-2.4l-8-6.08 3.04-9.6a1.28 1.28 0 0 0-2.08-1.44l-8.16 5.92-8.32-5.92a1.28 1.28 0 0 0-2.08 1.44l3.04 9.6-8 6.08a1.28 1.28 0 0 0 0.8 2.4h10.08l3.2 9.44a1.28 1.28 0 0 0 2.08 0zM258.4 568.8l3.2-9.44H272a1.28 1.28 0 0 0 0.8-2.4l-8-6.08 3.04-9.6a1.28 1.28 0 0 0-2.08-1.44l-8.16 5.92-8.32-5.92a1.28 1.28 0 0 0-2.08 1.44l3.04 9.6-8 6.08a1.28 1.28 0 0 0 0.8 2.4h10.08l3.2 9.44a1.28 1.28 0 0 0 2.08 0zM258.4 487.68l3.2-9.6H272a1.28 1.28 0 0 0 0.8-2.4l-8-6.08 3.04-9.6a1.28 1.28 0 0 0-2.08-1.44l-8.64 5.44-8.32-5.76a1.28 1.28 0 0 0-2.08 1.44l3.04 9.6-8 6.08a1.28 1.28 0 0 0 0.8 2.4h10.08l3.2 9.6a1.28 1.28 0 0 0 2.56 0.32zM258.4 413.92l3.2-9.6H272a1.28 1.28 0 0 0 0.8-2.4l-8-5.92 3.04-9.6a1.44 1.44 0 0 0-2.08-1.6l-8.16 5.92-8.32-5.92a1.44 1.44 0 0 0-2.08 1.6l3.04 9.6-8 5.92a1.28 1.28 0 0 0 0.8 2.4h10.08l3.2 9.6a1.44 1.44 0 0 0 2.08 0zM297.12 699.04l3.2-9.44h10.08a1.28 1.28 0 0 0 0.8-2.4l-8.16-6.08 3.04-9.6a1.28 1.28 0 0 0-2.08-1.44l-8.16 5.92-8.16-5.92a1.28 1.28 0 0 0-2.08 1.44l3.04 9.6-8.16 6.08a1.28 1.28 0 0 0 0 2.4h10.08l3.2 9.44a1.28 1.28 0 0 0 3.36 0zM297.12 610.72l3.2-9.44h10.08a1.28 1.28 0 0 0 0.8-2.4l-8.16-6.08 3.04-9.6a1.28 1.28 0 0 0-2.08-1.44l-8.16 5.92-8.16-5.92a1.28 1.28 0 0 0-2.08 1.44L288 592l-8.16 6.08a1.28 1.28 0 0 0 0 2.4h10.08l3.2 9.44a1.28 1.28 0 0 0 4 0.8zM297.12 526.88l3.2-9.6h10.08a1.44 1.44 0 0 0 0.8-2.56l-8.16-5.92 3.04-9.6a1.28 1.28 0 0 0-2.08-1.44l-8.16 5.76-8.16-5.76a1.28 1.28 0 0 0-2.08 1.44l3.04 9.6-8.16 5.92a1.44 1.44 0 0 0 0 2.56h10.08l3.2 9.6a1.44 1.44 0 0 0 3.36 0zM297.12 451.52l3.2-9.6h10.08a1.44 1.44 0 0 0 0.8-2.56l-8.16-5.92 3.04-9.6a1.28 1.28 0 0 0-2.08-1.44l-8.16 5.76-7.84-5.76a1.28 1.28 0 0 0-2.08 1.44l3.04 9.6-8.16 5.92a1.44 1.44 0 0 0 0 2.56h10.08l3.2 9.6a1.28 1.28 0 0 0 3.04 0zM336 736l3.2-9.6h10.08a1.44 1.44 0 0 0 0.8-2.56l-8.16-5.92 3.04-9.6a1.28 1.28 0 0 0-2.08-1.44l-8.16 5.76-8.16-5.76a1.28 1.28 0 0 0-2.08 1.44l3.04 9.6-7.52 6.72a1.44 1.44 0 0 0 0.8 2.56h10.08l3.2 9.6A1.28 1.28 0 0 0 336 736zM336 657.12l3.2-9.44h10.08a1.28 1.28 0 0 0 0.8-2.4l-8.16-6.08 3.04-9.6a1.28 1.28 0 0 0-2.08-1.44l-8.16 5.92-8.16-5.92a1.28 1.28 0 0 0-2.08 1.44l3.04 9.6-7.52 5.92a1.28 1.28 0 0 0 0.8 2.4h10.08l3.2 9.44a1.28 1.28 0 0 0 1.92 0.16zM336 568.8l3.2-9.44h10.08a1.28 1.28 0 0 0 0.8-2.4l-8.16-6.08 3.04-9.6a1.28 1.28 0 0 0-2.08-1.44l-8.16 5.92-8.16-5.92a1.28 1.28 0 0 0-2.08 1.44l3.04 9.6-7.52 5.92a1.28 1.28 0 0 0 0.8 2.4h10.08l3.2 9.44a1.28 1.28 0 0 0 1.92 0.16zM336 487.68l3.2-9.6h10.08a1.28 1.28 0 0 0 0.8-2.4l-8.16-6.08 3.04-9.6a1.28 1.28 0 0 0-2.08-1.44l-8.32 5.44-8.16-5.76a1.28 1.28 0 0 0-2.08 1.44l3.04 9.6-7.36 6.4a1.28 1.28 0 0 0 0.8 2.4h10.08l3.2 9.6a1.28 1.28 0 0 0 1.92 0zM336 413.92l3.2-9.6h10.08a1.28 1.28 0 0 0 0.8-2.4l-8.16-5.92 3.04-9.6a1.44 1.44 0 0 0-2.08-1.6l-8.16 5.92-8.32-6.72a1.44 1.44 0 0 0-2.08 1.6l3.04 9.6-7.36 6.56a1.28 1.28 0 0 0 0.8 2.4h10.08l3.2 9.6a1.44 1.44 0 0 0 1.92 0.16zM374.56 699.04l3.2-9.44h10.08a1.28 1.28 0 0 0 0.8-2.4l-8-6.08 3.36-9.12a1.28 1.28 0 0 0-2.08-1.44l-8.32 5.92-8.16-5.92a1.28 1.28 0 0 0-2.08 1.44l3.04 9.6-8 6.08a1.28 1.28 0 0 0 0 2.4h10.08l3.2 9.44a1.28 1.28 0 0 0 2.88-0.48zM374.56 610.72l3.2-9.44h10.08a1.28 1.28 0 0 0 0.8-2.4l-8-6.08 3.04-9.6a1.28 1.28 0 0 0-2.08-1.44l-8.32 5.92-8.16-5.92a1.28 1.28 0 0 0-2.08 1.44l3.04 9.6-8 6.08a1.28 1.28 0 0 0 0 2.4h10.08l3.2 9.44a1.28 1.28 0 0 0 3.2 0zM374.56 526.88l3.2-9.6h10.08a1.44 1.44 0 0 0 0.8-2.56l-8-5.92 3.04-9.6a1.28 1.28 0 0 0-2.08-1.44l-8.32 5.76-8.16-5.76a1.28 1.28 0 0 0-2.08 1.44l3.04 9.6-8 5.92a1.44 1.44 0 0 0 0 2.56h10.08l3.2 9.6a1.44 1.44 0 0 0 3.2 0zM374.56 451.52l3.2-9.6h10.08a1.44 1.44 0 0 0 0.8-2.56l-8-5.92 3.04-9.6a1.28 1.28 0 0 0-2.08-1.44l-8.32 5.76-8.16-5.76a1.28 1.28 0 0 0-2.08 1.44l3.04 9.6-8 5.92a1.44 1.44 0 0 0 0 2.56h10.08l3.2 9.6a1.28 1.28 0 0 0 3.2 0zM413.44 736l3.2-9.6h9.92a1.44 1.44 0 0 0 0.8-2.56l-8-5.92 3.04-9.6a1.28 1.28 0 0 0-2.08-1.44l-8.16 5.76-8.32-5.76a1.28 1.28 0 0 0-2.08 1.44l3.04 9.6-8 5.92a1.44 1.44 0 0 0 0.8 2.56h10.08l3.2 9.6a1.28 1.28 0 0 0 2.56 0zM413.44 657.12l3.2-9.44h9.92a1.28 1.28 0 0 0 0.8-2.4l-8-6.08 3.04-9.6a1.28 1.28 0 0 0-2.08-1.44l-8.16 5.92-8.32-5.92a1.28 1.28 0 0 0-2.08 1.44l3.04 9.6-8 6.08a1.28 1.28 0 0 0 0.8 2.4h10.08l3.2 9.44a1.28 1.28 0 0 0 2.56 0zM413.44 568.8L416 560h9.92a1.28 1.28 0 0 0 0.8-2.4l-8-6.08 3.04-9.6a1.28 1.28 0 0 0-2.08-1.44l-8.16 5.92-8.32-5.92a1.28 1.28 0 0 0-2.08 1.44l3.04 9.6-8 6.08a1.28 1.28 0 0 0 0.8 2.4h10.08l3.2 9.44a1.28 1.28 0 0 0 3.2-0.64zM413.44 487.68l3.2-9.6h9.92a1.28 1.28 0 0 0 0.8-2.4l-8-6.08 3.04-9.6a1.28 1.28 0 0 0-2.08-1.44l-8.16 5.44-8.32-5.76a1.28 1.28 0 0 0-2.08 1.44l3.04 9.6-8 6.08a1.28 1.28 0 0 0 0.8 2.4h10.08l3.2 9.6a1.28 1.28 0 0 0 2.56 0.32zM413.44 413.92l3.2-9.6h9.92a1.28 1.28 0 0 0 0.8-2.4l-8-5.92 3.04-9.6a1.44 1.44 0 0 0-2.08-1.6l-8.16 5.92-8.32-5.92a1.44 1.44 0 0 0-2.08 1.6l3.04 9.6-8 5.92a1.28 1.28 0 0 0 0.8 2.4h10.08l3.2 9.6a1.44 1.44 0 0 0 2.56 0zM452.16 699.04l3.2-9.44h10.08a1.28 1.28 0 0 0 0.8-2.4l-8.16-6.08 3.04-9.6a1.28 1.28 0 0 0-2.08-1.44l-8.16 5.92-8.16-5.92a1.28 1.28 0 0 0-2.08 1.44l3.04 9.6-8.16 6.08a1.28 1.28 0 0 0 0.8 2.4h10.08l3.2 9.44a1.28 1.28 0 0 0 2.56 0zM452.16 610.72l3.2-9.44h10.08a1.28 1.28 0 0 0 0.8-2.4l-8.16-6.08 3.04-9.6a1.28 1.28 0 0 0-2.08-1.44l-8.16 5.92-8.16-5.92a1.28 1.28 0 0 0-2.08 1.44l3.04 9.6-8.16 6.08a1.28 1.28 0 0 0 0.8 2.4h10.08l3.2 9.44a1.28 1.28 0 0 0 2.56 0zM452.16 526.88l3.2-9.6h10.08a1.44 1.44 0 0 0 0.8-2.56l-8.16-5.92 3.04-9.6a1.28 1.28 0 0 0-2.08-1.44l-8.16 5.76-8.16-5.76a1.28 1.28 0 0 0-2.08 1.44l3.04 9.6-8.16 5.92a1.44 1.44 0 0 0 0.8 2.56h10.08l3.2 9.6a1.44 1.44 0 0 0 2.56 0zM452.16 451.52l3.2-9.6h10.08a1.44 1.44 0 0 0 0.8-2.56l-8.16-5.92 3.04-9.6a1.28 1.28 0 0 0-2.08-1.44l-8.16 5.76-8.16-5.76a1.28 1.28 0 0 0-2.08 1.44l3.04 9.6-8.16 5.92a1.44 1.44 0 0 0 0.8 2.56h10.08l3.2 9.6a1.28 1.28 0 0 0 2.56 0zM490.88 736l3.2-9.6h10.08a1.44 1.44 0 0 0 0-2.56l-8.16-5.92 3.04-9.6a1.28 1.28 0 0 0-2.08-1.44l-8.16 5.76-8.16-5.76a1.28 1.28 0 0 0-2.08 1.44l3.04 9.6-8.16 5.92a1.44 1.44 0 0 0 0.8 2.56h10.08l3.2 9.6a1.28 1.28 0 0 0 3.36 0zM490.88 657.12l3.2-9.44h10.08a1.28 1.28 0 0 0 0-2.4l-8.16-6.08 3.04-9.6a1.28 1.28 0 0 0-2.08-1.44l-8.16 5.92-8.16-5.92a1.28 1.28 0 0 0-2.08 1.44l3.04 9.6-8.16 6.08a1.28 1.28 0 0 0 0.8 2.4h10.08l3.2 9.44a1.28 1.28 0 0 0 3.36 0zM490.88 568.8l3.2-9.44h10.08a1.28 1.28 0 0 0 0-2.4l-8.16-6.08 3.04-9.6a1.28 1.28 0 0 0-2.08-1.44l-8.16 5.92-8.16-5.92a1.28 1.28 0 0 0-2.08 1.44l3.04 9.6-8.16 6.08a1.28 1.28 0 0 0 0.8 2.4h10.08l3.2 9.44a1.28 1.28 0 0 0 3.36 0zM490.88 487.68l3.2-9.6h10.08a1.28 1.28 0 0 0 0-2.4l-8.16-6.08 3.04-9.6a1.28 1.28 0 0 0-2.08-1.44L489.6 464l-8.16-5.76a1.28 1.28 0 0 0-2.08 1.44l3.04 9.6-8.16 6.08a1.28 1.28 0 0 0 0.8 2.4h10.08l3.2 9.6a1.28 1.28 0 0 0 2.56 0.32zM490.88 413.92l3.2-9.6h10.08a1.28 1.28 0 0 0 0-2.4l-8.16-5.92 3.04-9.6a1.44 1.44 0 0 0-2.08-1.6l-8.16 5.92-8.16-5.92a1.44 1.44 0 0 0-2.08 1.6l3.04 9.6-8.16 5.92a1.28 1.28 0 0 0 0.8 2.4h10.08l3.2 9.6a1.44 1.44 0 0 0 3.36 0z"  horiz-adv-x="1024" />

    
    <glyph glyph-name="ai" unicode="&#59018;" d="M826.368 570.368c0 7.168 2.048 10.24 10.24 10.24h123.904c7.168 0 10.24-2.048 10.24-10.24v-621.568c0-7.168-2.048-10.24-10.24-10.24h-122.88c-8.192 0-10.24 4.096-10.24 10.24l-1.024 621.568z m-8.192 178.176c0 50.176 35.84 79.872 79.872 79.872 48.128 0 79.872-32.768 79.872-79.872 0-52.224-33.792-79.872-81.92-79.872-46.08-1.024-77.824 27.648-77.824 79.872zM462.848 311.296C441.344 398.336 389.12 588.8 368.64 680.96h-2.048c-16.384-92.16-58.368-247.808-92.16-369.664h188.416zM243.712 183.296l-62.464-236.544c-2.048-7.168-4.096-8.192-12.288-8.192H54.272c-8.192 0-10.24 2.048-8.192 12.288l224.256 783.36c4.096 13.312 7.168 26.624 8.192 65.536 0 6.144 2.048 8.192 7.168 8.192H450.56c6.144 0 8.192-2.048 10.24-8.192l250.88-849.92c2.048-7.168 0-10.24-7.168-10.24H573.44c-7.168 0-10.24 2.048-12.288 7.168l-65.536 236.544c1.024-1.024-251.904 0-251.904 0z"  horiz-adv-x="1024" />

    
    <glyph glyph-name="waihuixitong" unicode="&#58904;" d="M696.48 537.84h-64a119.36 119.36 0 1 1-119.04-119.36v-64a183.04 183.04 0 1 0 183.04 183.36zM330.48 235.44h64a119.36 119.36 0 1 1 118.96 119.36v64a183.04 183.04 0 1 0-182.96-183.36zM521.44 784.48a32 32 0 0 0 32-32v-732.08a32 32 0 0 0-32-32 32 32 0 0 0-32 32V752.72a32 32 0 0 0 32 31.76zM1024 560l-102.88-102.88L818.16 560zM955.84 564.96a32 32 0 1 0-62.4-17.04C843.6 730.64 678.72 831.28 498.16 831.28c-237.6 0-430.56-198.88-430.56-444.64s192.96-444.72 430.48-444.72A432.56 432.56 0 0 1 909.84 256a32 32 0 0 0 62-18.32 497.28 497.28 0 0 0-473.68-360.64C224.48-122.72 2.96 105.52 2.96 386.64S224.48 896 498.16 896c207.44 0 399.28-117.2 457.68-331.04z"  horiz-adv-x="1024" />

    
    <glyph glyph-name="huanqiu" unicode="&#58881;" d="M525.8 397.1m-228 0a228 228 0 1 1 456 0 228 228 0 1 1-456 0ZM219.7 242.7c-39.8 0-61.4 9.4-67.9 28.6-6.4 19 2.3 38.5 25.8 57.9 18.7 15.4 47.8 32.5 91.7 53.9 9.9 4.8 21.9 0.7 26.7-9.2 4.8-9.9 0.7-21.9-9.2-26.7-35.2-17.1-60.3-31.4-76.9-43.5-12.2-8.9-17-14.8-19-17.8 8.4-2.7 35.4-7.3 109.7 5.6 67 11.7 151.1 34.1 236.9 63.2 85.7 29.1 166.1 62.4 226.4 93.9 68 35.5 86.1 55.7 90.7 62.6-2.9 1.3-9.4 3.1-23.1 3.2-19.7 0.1-47.2-3.5-84.1-10.8-10.8-2.1-21.4 4.9-23.5 15.7-2.1 10.8 4.9 21.4 15.7 23.5 45.4 9 78.7 12.7 101.8 11.2 28.7-1.8 46.5-12.2 52.9-30.9 9.7-28.6-20.5-60.3-97.8-102.5-63.6-34.7-151-71.6-246.2-103.9s-187-56.2-258.6-67.3c-28.5-4.5-52.4-6.7-72-6.7zM638.7 406.2c-0.3-3-3.6-4.7-6.2-3.2-14 7.7-50.5 22.7-72.7-13.5-19-31 21.6-55.2 45.2-64.5 21.4-8.5 55.4-11.6 70.7-12.6 4.9-0.3 9.5 2.1 12 6.2 8 13 25.2 42.6 30.6 64.9 6 24.6 9.7 71.7-26.6 74.2-42.4 2.8-51.2-35.6-53-51.5zM450.8 597.1s-134.5-77.4-117-212c0 0 6.7-46.3 23-72.7l50 12.8c0-0.1-92 109.9 44 271.9zM439.4 553.1s-67.5-108.3-23.7-190.5l31.5 10.5s-33.7 54.4-7.8 180z"  horiz-adv-x="1024" />

    
    <glyph glyph-name="hushengangtong" unicode="&#58922;" d="M0 896m423.724138 0l176.551724 0q423.724138 0 423.724138-423.724138l0-176.551724q0-423.724138-423.724138-423.724138l-176.551724 0q-423.724138 0-423.724138 423.724138l0 176.551724q0 423.724138 423.724138 423.724138ZM520.368552 394.222345m-292.705104 0a292.705103 292.705103 0 1 1 585.410207 0 292.705103 292.705103 0 1 1-585.410207 0ZM393.886897 680.465655a25.088 25.088 0 0 0 32.167724 38.523586c123.727448-103.300414 209.972966-263.962483 259.354482-481.174069a25.088 25.088 0 1 0-48.940137-11.122758c-47.104 207.271724-128.158897 358.258759-242.582069 453.773241zM816.286897 349.766621a25.088 25.088 0 1 0 16.45462-47.404138c-152.275862-52.841931-334.388966-44.032-546.003862 25.529379a25.088 25.088 0 1 0 15.660138 47.668966c201.922207-66.383448 373.089103-74.663724 513.889104-25.776552zM349.625379 141.470897a25.088 25.088 0 0 0-49.434482 8.598069c27.595034 158.808276 123.586207 313.82069 287.037793 465.178482a25.088 25.088 0 0 0 34.074482-36.811034c-155.930483-144.41931-246.166069-290.127448-271.677793-436.965517z"  horiz-adv-x="1024" />

    
    <glyph glyph-name="aixin" unicode="&#58894;" d="M509.1 630.4l-61.9 61.9c-84.7 84.7-222.2 84.7-306.9 0-84.7-84.7-84.7-222.2 0-306.9l61.9-61.9 285.9-285.9c11.6-11.6 30.3-11.6 41.9 0l286 285.9 61.9 61.9c84.7 84.7 84.7 222.2 0 306.9-84.7 84.7-222.2 84.7-306.9 0l-61.9-61.9zM486 81.6l285.9 285.9 61.9 61.9c46.3 46.3 67.3 108.2 63 168.7-5.9 83.8-73.4 151.3-157.2 157.2-60.5 4.3-122.5-16.7-168.7-63L509 630.4l-44 44-17.9 17.9c-84.7 84.7-222.2 84.7-306.9 0-84.7-84.7-84.7-222.2 0-306.9l17.9-17.9 44-44L444 81.6c11.7-11.6 30.4-11.6 42 0zM897.4 583.2c-0.1 70.5-57.1 127.4-127.6 127.5-55.6 0-111.2-21.1-153.6-63.5l-61.9-61.9-61.9 61.9c-84.7 84.7-222.2 84.7-306.9 0-84.7-84.7-84.7-222.2 0-306.9l61.9-61.9 49.3-49.3 147.4-147.4c11.6-11.6 30.3-11.6 41.9 0l285.9 285.9 61.9 61.9c42.5 42.4 63.7 98 63.6 153.7z"  horiz-adv-x="1024" />

    
    <glyph glyph-name="caidan" unicode="&#58917;" d="M376-25H184c-52.9 0-96 43.1-96 96V263c0 52.9 43.1 96 96 96h192c52.9 0 96-43.1 96-96v-192c0-52.9-43.1-96-96-96zM184 295c-17.6 0-32-14.4-32-32v-192c0-17.6 14.4-32 32-32h192c17.6 0 32 14.4 32 32V263c0 17.6-14.4 32-32 32H184zM376 423H184c-52.9 0-96 43.1-96 96V711c0 52.9 43.1 96 96 96h192c52.9 0 96-43.1 96-96v-192c0-52.9-43.1-96-96-96zM184 743c-17.6 0-32-14.4-32-32v-192c0-17.6 14.4-32 32-32h192c17.6 0 32 14.4 32 32V711c0 17.6-14.4 32-32 32H184zM824-25H632c-52.9 0-96 43.1-96 96V263c0 52.9 43.1 96 96 96h192c52.9 0 96-43.1 96-96v-192c0-52.9-43.1-96-96-96zM632 295c-17.6 0-32-14.4-32-32v-192c0-17.6 14.4-32 32-32h192c17.6 0 32 14.4 32 32V263c0 17.6-14.4 32-32 32H632zM824 423H632c-52.9 0-96 43.1-96 96V711c0 52.9 43.1 96 96 96h192c52.9 0 96-43.1 96-96v-192c0-52.9-43.1-96-96-96zM632 743c-17.6 0-32-14.4-32-32v-192c0-17.6 14.4-32 32-32h192c17.6 0 32 14.4 32 32V711c0 17.6-14.4 32-32 32H632z"  horiz-adv-x="1024" />

    
    <glyph glyph-name="strategy" unicode="&#58991;" d="M431.3 84.3h160v-40h-160zM209.6 719.555l42.425-42.426-28.284-28.284-42.426 42.426zM492 831.6h40v-60h-40zM92.4 408.9h60v-40h-60zM511.3 738.3c-176.7 0-311-123.3-311-300 0-126.5 94.3-231.1 171-307.8v-147h66.1v-47h40v47h68v-47h40v47h65.9v147c82.2 82.2 170 181.3 170 307.8 0 176.7-133.3 300-310 300zM411.3 23.4v79.6h200v-79.6h-200zM781.3 438.3c0-111.9-81.7-202.9-158.3-279.5l-11.7-11.8v-4h-79.3v256.3c0 16.5 13.5 30 30 30s30-13.5 30-30c0-12.5-7.6-23.2-18.4-27.7v-41.4c33.2 5.5 58.4 34.3 58.4 69 0 38.7-31.3 70-70 70-19.6 0-37.3-8.1-50-21-12.7 13-30.4 21-50 21-38.7 0-70-31.3-70-70 0-34.7 25.3-63.5 58.4-69v41.4c-10.8 4.5-18.4 15.2-18.4 27.7 0 16.5 13.5 30 30 30s30-13.5 30-30v-256.2h-80.7v4l-11.7 11.7c-36.3 36.3-77.7 80-108.9 128.6-33.9 52.7-50.4 102.1-50.4 150.9 0 37.8 6.9 73.5 20.6 105.9 13.1 31 32 58.4 56.2 81.4 24.2 23 52.9 40.9 85.4 53.3 33.6 12.9 70.3 19.4 108.9 19.4 38.6 0 75.1-6.5 108.7-19.4 32.3-12.4 60.9-30.3 85-53.3 24.1-23 42.9-50.4 55.9-81.4 13.4-32.4 20.3-68 20.3-105.9zM871.6 408.9h60v-40h-60zM800.29 648.884l-28.284 28.284 42.426 42.426 28.284-28.284z"  horiz-adv-x="1024" />

    
    <glyph glyph-name="cloud-information" unicode="&#59067;" d="M513.656 104.941h253.036c15.534 0 28.115 12.539 28.115 28.073v393.696c0 0.005 0 0.010 0 0.016 0 15.495-12.562 28.057-28.057 28.057-0.020 0-0.041 0-0.061 0l0.003-379.555c-0.002-15.526-12.589-28.111-28.115-28.111s-28.113 12.585-28.116 28.111v463.943c0 0 0 0 0 0 0 15.504-12.569 28.073-28.073 28.073-0.015 0-0.030 0-0.044 0h-421.724c-15.576 0-28.115-12.567-28.115-28.073v-506.157c0-15.534 12.581-28.073 28.115-28.073h253.036zM513.656 48.711h-267.038c-0.017 0-0.037 0-0.057 0-38.818 0-70.287 31.469-70.287 70.287 0 0.005 0 0.011 0 0.016v534.159c0.023 38.834 31.511 70.302 70.344 70.302h449.73c0.018 0 0.038 0 0.059 0 38.817 0 70.285-31.468 70.285-70.285 0-0.006 0-0.012 0-0.018v-42.158h14.001c38.833 0 70.321-31.469 70.344-70.302v-421.699c0-0.004 0-0.010 0-0.015 0-38.818-31.469-70.287-70.287-70.287-0.020 0-0.040 0-0.060 0h-267.034zM274.678 554.783c0 15.534 12.609 28.115 28.199 28.115h140.407c15.576 0 28.2-12.483 28.2-28.115 0-15.534-12.61-28.115-28.2-28.115h-140.407c-0.034 0-0.073 0-0.113 0-15.511 0-28.086 12.575-28.086 28.086 0 0.010 0 0.021 0 0.031zM274.678 386.092c0 15.534 12.652 28.115 27.988 28.115h337.65c15.463 0 27.988-12.483 27.988-28.115 0-15.534-12.652-28.115-27.988-28.115h-337.664c0 0-0.001 0-0.002 0-7.749 0-14.762 3.151-19.827 8.242-5.034 5.058-8.145 12.031-8.145 19.731 0 0.050 0 0.1 0 0.15zM274.678 287.689c0 15.534 12.652 28.116 27.988 28.116h337.65c15.463 0 27.988-12.484 27.988-28.116 0-15.533-12.652-28.115-27.988-28.115h-337.664c-15.45 0-27.974 12.525-27.974 27.975 0 0.049 0 0.098 0 0.148zM274.678 189.287c0 15.533 12.652 28.115 27.988 28.115h337.65c15.463 0 27.988-12.483 27.988-28.115 0-15.534-12.652-28.116-27.988-28.116h-337.664c-15.45 0-27.974 12.525-27.974 27.975 0 0.050 0 0.099 0 0.149z"  horiz-adv-x="1024" />

    
    <glyph glyph-name="gupiao" unicode="&#58889;" d="M891.014-35.275l-751.154-0.017c-17.975 0.017-34.445 16.537-34.486 34.487l0 212.937c0 34.589 17.37 52.689 35.606 35.348l101.585-79.955c13.648-11.687 34.159-27.584 45.575-13.724l116.429 141.367c11.418 13.859 32.013 33.427 45.77 21.858l100.187-87.228c13.751-11.553 42.225-31.726 53.415-17.666l249.285 300.427c33.671 38.437 71.223 29.419 71.223-17.673 0-35.093 0-495.69 0-495.69-0.001-17.95-15.469-34.487-33.436-34.47zM598.671 333.696c-9.228-11.821-22.852-19.364-37.754-20.931-14.929-1.769-29.807 3.013-41.266 12.646l-113.01 95.177-113.506-149.821c-9.069-11.939-22.574-19.718-37.46-21.489-2.163-0.251-4.337-0.386-6.509-0.386-12.654 0-25.015 4.38-34.917 12.496l-99.058 81.049c-23.584 19.282-27.061 54.054-7.772 77.639 19.274 23.617 54.038 27.069 77.614 7.772l54.761-44.794 113.987 150.478c9.142 12.075 22.817 19.838 37.839 21.521 15.13 1.65 30.093-2.913 41.662-12.612l113.625-95.709 146.807 184.141-40.912 33.983c-29.03 24.106-22.582 50.224 14.331 58.028l212.767 45.004c36.906 7.805 48.322-10.305 25.37-40.263l-306.597-393.925z"  horiz-adv-x="1024" />

    
    <glyph glyph-name="gupiao-wode" unicode="&#59009;" d="M845.9 106.9c-31.6 122-124.2 214.8-239 247.7 73.7 34.7 124.8 109.7 124.8 196.4 0 119.7-97.4 217-217 217s-217-97.3-217-217c0-86.7 51.1-161.7 124.8-196.4C307.7 321.8 215 229 183.5 106.9c-6.7-25.8-1.1-52.7 15.2-73.8 16.1-20.8 40.2-32.7 66.2-32.7h499.7c25.9 0 50 11.9 66.1 32.8 16.3 21 21.9 47.9 15.2 73.7zM331 551c0 101.2 82.4 183.6 183.7 183.6S698.4 652.3 698.4 551c0-99.8-80.1-181.3-179.4-183.5h-8.6C411.1 369.7 331 451.2 331 551z m473.3-497.5c-9.8-12.6-24.2-19.8-39.8-19.8H264.9c-15.6 0-30.1 7.2-39.8 19.8-10 12.9-13.4 29.3-9.3 45C251.6 237.1 374.6 334 514.7 334c140.2 0 263.1-96.8 298.9-235.6 4.1-15.7 0.7-32-9.3-44.9z"  horiz-adv-x="1024" />

    
    <glyph glyph-name="gupiao-hangqing" unicode="&#59010;" d="M876.3 47.1h-19V532.5c0 21.6-17.3 39.1-38.6 39.1H689.9c-21.3 0-38.6-17.5-38.6-39.1v-485.4H614V718c0 22.5-17.3 40.7-38.7 40.7H446.2c-21.4 0-38.7-18.2-38.7-40.7v-670.9h-37.2V344.7c0 21.9-17.3 39.7-38.6 39.7H202.9c-21.3 0-38.6-17.8-38.6-39.7v-297.6h-19.2c-10.3 0-18.7-8.4-18.7-18.7s8.4-18.7 18.7-18.7h731.2c10.4 0 18.7 8.4 18.7 18.7s-8.3 18.7-18.7 18.7zM688.8 532.5c0 1.1 0.7 1.6 1.2 1.6h128.6c0.5 0 1.2-0.6 1.2-1.6v-485.4h-131V532.5zM445 718c0 2.2 1.2 3.2 1.3 3.2h128.9c0.3-0.2 1.3-1.2 1.3-3.2v-670.9H445V718zM201.8 344.7c0 1.5 0.9 2.2 1.2 2.2h128.6c0.2 0 1.2-0.7 1.2-2.2v-297.6h-131V344.7z"  horiz-adv-x="1024" />

    
    <glyph glyph-name="gupiao-zuhedianjitai" unicode="&#59013;" d="M169.1 462l296.6-188.6c14.7-9.4 31.6-14.3 49-14.3s34.4 4.9 49 14.2L860.3 462c18.8 11.9 30 32.4 30 54.6s-11.2 42.7-30 54.6L563.7 759.9c-29.3 18.7-68.7 18.6-98 0L169.1 571.2c-18.8-11.9-30-32.3-30-54.6 0-22.2 11.2-42.7 30-54.6zM858.3 374.8L544.5 171.9c-20.7-13.4-46.6-13.4-67.3-0.1l-311 202.9c-8 5.3-18.7 3-24-5-5.3-8-3-18.8 5-24l311.1-203c16.2-10.4 34.4-15.6 52.5-15.6s36.3 5.2 52.5 15.6l313.8 203.1c8 5.1 10.3 15.9 5.1 23.9-5.1 8-15.9 10.3-23.9 5.1zM858.3 247.4L544.5 44.5c-20.8-13.4-46.7-13.4-67.4-0.1l-311 202.9c-8 5.3-18.7 3-24-5-5.2-8-2.9-18.8 5.1-24l311.1-203c16.2-10.4 34.4-15.6 52.5-15.6s36.3 5.2 52.5 15.7l313.8 203c8 5.1 10.3 15.9 5.1 23.9-5.1 8-15.9 10.3-23.9 5.1z"  horiz-adv-x="1024" />

    
    <glyph glyph-name="tubiaozhizuomoban-" unicode="&#58884;" d="M510.913 822.856c-248.793 0-450.479-201.683-450.479-450.48 0-248.791 201.685-450.477 450.479-450.477s450.478 201.687 450.478 450.477c0 248.793-201.683 450.48-450.478 450.48zM246.266 447.145l0.339 0.078c0.674 6.679 4.597 13.189 11.654 18.254l119.283 86.357c15.696 11.258 41.262 11.258 56.954 0 15.696-11.256 15.696-29.587 0-40.843l-49.325-35.705 340.243 0.323c23.096 0 41.703-13.426 41.703-29.91s-18.72-29.914-41.703-29.914l-435.427-0.08a41.87 41.87 0 0 0-4.368 0c-9.865 0.327-19.623 3.216-27.244 8.69-7.513 5.386-11.548 12.459-12.112 19.537-0.11 1.116 0.003 3.209 0.003 3.213zM767.339 299.23l-0.333-0.08c-0.67-6.593-4.595-13.111-11.661-18.172L636.063 194.86c-15.802-11.256-41.366-11.256-57.06 0h0.004c-15.696 11.258-15.696 29.51 0.108 40.604l49.329 35.621-340.356-0.323c-23.094 0-41.705 13.348-41.705 29.833 0 16.484 18.722 29.829 41.705 29.829l435.536 0.084c1.459 0.08 2.916 0.08 4.372 0 9.867-0.405 19.621-3.296 27.24-8.682 7.513-5.39 11.552-12.382 12.106-19.459 0.11-1.044-0.003-3.137-0.003-3.137z"  horiz-adv-x="1024" />

    
    <glyph glyph-name="xiaoxi-copy" unicode="&#58880;" d="M836.033 107.20000000000005l6-5.99999999 117.8-117.80000001-235.6 0-206.5-0.2-5.79999999 0c-247.40000001 0-448 179.5-448.00000002 400.8s200.60000001 400.8 448.00000002 400.8 448-179.5 447.99999999-400.8c0.1-107.4-47.1-204.9-123.9-276.8z m-182.60000001 206.1c39.09999999 0 70.7 31.69999999 70.70000001 70.7s-31.69999999 70.7-70.70000001 70.7c-39.09999999 0-70.7-31.69999999-70.7-70.7s31.69999999-70.7 70.7-70.7z m-282.89999998 0c39.09999999 0 70.7 31.69999999 70.7 70.7s-31.69999999 70.7-70.7 70.7-70.7-31.69999999-70.7-70.7 31.60000001-70.7 70.7-70.7z"  horiz-adv-x="1024" />

    
    <glyph glyph-name="lianghua" unicode="&#58897;" d="M113.322 383.291H36.114c-11.63 0-21.057-9.429-21.057-21.058 0-11.628 9.426-21.055 21.057-21.055h79.363a411.765 411.765 0 0 0-2.155 42.113z m880.354-373.903l-79.715 79.714c61.407 82.013 97.783 183.852 97.783 294.19 0 271.352-219.974 491.324-491.324 491.324-201.534 0-374.318-121.558-450.094-295.168 0.928-6.89 4.461-13.666 14.921-13.666h24.716C179.928 722.902 337.327 832.501 520.42 832.501c248.092 0 449.211-201.117 449.211-449.21 0-98.565-31.946-189.566-85.77-263.633 0 0-15.357-19.988-40.571-45.199-24.687-24.684-59.241-54.607-59.241-54.607-74.069-53.823-165.065-85.771-263.629-85.771-183.093 0-340.492 109.599-410.457 266.719H85.247s-10.107-3.046-14.545-14.512c75.969-173.158 248.513-294.32 449.718-294.32 110.384 0 212.259 36.409 294.289 97.862l79.704-79.704c24.67-24.669 64.87-24.468 89.787 0.452l9.023 9.022c24.921 24.919 25.122 65.118 0.453 89.788zM344.257 562.205c4.524 7.836 13.318 11.594 21.746 10.169 8.427 1.425 17.22-2.333 21.745-10.169l88.677-153.592 43.305 75.007c5.814 10.072 18.693 13.524 28.765 7.708 1.428-0.825 2.683-1.819 3.838-2.899 7.152-0.121 14.07-3.804 17.907-10.45l90.558-156.852 90.558 156.852c3.836 6.646 10.753 10.329 17.905 10.45 1.155 1.08 2.412 2.073 3.838 2.899 10.072 5.816 22.951 2.364 28.765-7.708l63.17-109.414c5.814-10.071 2.364-22.949-7.707-28.764-10.072-5.816-22.949-2.365-28.764 7.708l-50.326 87.164-95.696-165.75c-4.524-7.835-13.318-11.592-21.745-10.166-8.428-1.426-17.222 2.332-21.746 10.166l-95.695 165.75-50.326-87.164c-5.815-10.074-18.693-13.524-28.764-7.708-6.703 3.87-10.388 10.872-10.446 18.092L366 515.642l-90.558-156.85c-2.834-4.91-7.36-8.214-12.408-9.671-3.859-4.807-9.713-7.944-16.356-7.944H115.477c21.074-205.046 194.328-364.984 404.943-364.984 224.833 0 407.096 182.263 407.096 407.097 0 224.833-182.263 407.096-407.096 407.096-224.834 0-407.097-182.263-407.097-407.096h127.639l103.295 178.915z"  horiz-adv-x="1024" />

    


  </font>
</defs>
</svg>
